#!OML:ASF F:\VICON\USERDATA\INSTALL\rory3\rory3.ASF
:FULLY-SPECIFIED
:DEGREES
274
root 0.870468 18.1052 -14.0677 2.84792 -6.0843 4.86257
lowerback 8.3111 -0.660533 1.96102
upperback -1.8694 -0.357801 4.95202
thorax -6.62476 -0.147689 4.16282
lowerneck -23.2403 -2.3935 -8.45227
upperneck 11.1143 -1.25839 3.9881
head 7.24092 -0.591609 2.51829
rclavicle -6.36111e-015 1.90833e-014
rhumerus -35.0184 -8.22729 -81.3798
rradius 59.3589
rwrist -0.590717
rhand -18.2227 11.7554
rfingers 7.12502
rthumb 8.05542 -18.0711
lclavicle -6.36111e-015 1.90833e-014
lhumerus -42.2943 1.71114 89.7963
lradius 54.905
lwrist 0.0804411
lhand -21.6594 22.5524
lfingers 7.12502
lthumb 4.73762 52.4794
rfemur -12.7372 7.24637 14.1172
rtibia 37.117
rfoot -6.37195 -10.0707
rtoes 0.785545
lfemur -8.80595 0.56528 -24.2398
ltibia 27.5801
lfoot -6.07239 0.943964
ltoes -8.50882
275
root 0.861877 18.1782 -14.0537 2.91019 -5.95921 5.08119
lowerback 8.32076 -0.650553 1.63767
upperback -1.98686 -0.379601 4.84182
thorax -6.7517 -0.146169 4.23557
lowerneck -22.7558 -2.34977 -8.56443
upperneck 10.9223 -1.26304 4.32103
head 7.10374 -0.567417 2.64569
rclavicle 1.05356e-014 -5.08889e-014
rhumerus -35.3239 -8.21673 -81.1603
rradius 59.4079
rwrist -1.01971
rhand -18.3387 11.5996
rfingers 7.12502
rthumb 7.94349 -18.2312
lclavicle 1.05356e-014 -5.08889e-014
lhumerus -42.2519 1.53761 89.5101
lradius 55.3108
lwrist -0.0879807
lhand -22.0212 25.0958
lfingers 7.12502
lthumb 4.38834 55.0304
rfemur -12.4951 6.95118 13.8837
rtibia 36.3271
rfoot -5.55668 -9.8141
rtoes 1.02163
lfemur -8.40702 0.309648 -24.4014
ltibia 26.6192
lfoot -4.98693 0.680146
ltoes -8.34184
276
root 0.851094 18.2439 -14.0459 3.03109 -5.90251 5.03006
lowerback 8.33926 -0.638486 1.4815
upperback -2.02202 -0.376738 4.85867
thorax -6.79885 -0.137322 4.3435
lowerneck -22.8936 -2.42627 -8.69393
upperneck 11.2336 -1.35457 4.5415
head 7.23785 -0.598836 2.73182
rclavicle -1.13307e-014 -4.45278e-014
rhumerus -35.2982 -8.23549 -80.8973
rradius 59.2598
rwrist -1.1989
rhand -18.5182 11.7087
rfingers 7.12502
rthumb 7.77021 -18.1285
lclavicle -1.13307e-014 -4.45278e-014
lhumerus -41.9585 1.50639 89.2274
lradius 55.6852
lwrist -0.239886
lhand -21.6887 25.3643
lfingers 7.12502
lthumb 4.70932 55.292
rfemur -12.3193 6.84722 13.9775
rtibia 35.5539
rfoot -4.69662 -9.68489
rtoes 1.57279
lfemur -8.12558 0.0912613 -24.2679
ltibia 25.7263
lfoot -3.94911 0.454411
ltoes -8.013
277
root 0.839229 18.3001 -14.0387 3.18007 -5.88124 4.82594
lowerback 8.24453 -0.587584 1.50298
upperback -1.97697 -0.312186 4.87083
thorax -6.70075 -0.107347 4.33137
lowerneck -22.894 -2.54585 -8.59001
upperneck 11.329 -1.53766 4.47556
head 7.28083 -0.689456 2.67053
rclavicle -1.47101e-014 3.49861e-014
rhumerus -35.1511 -8.322 -80.7053
rradius 59.0899
rwrist -1.23482
rhand -18.8568 11.9045
rfingers 7.12502
rthumb 7.44341 -17.9446
lclavicle -1.47101e-014 3.49861e-014
lhumerus -41.479 1.33048 88.9653
lradius 55.9128
lwrist -0.0318712
lhand -20.9444 20.5264
lfingers 7.12502
lthumb 5.428 50.4369
rfemur -12.1057 6.86133 14.2574
rtibia 34.8209
rfoot -3.8192 -9.71451
rtoes 2.4326
lfemur -7.90081 -0.0548886 -23.9534
ltibia 24.892
lfoot -3.06195 0.22399
ltoes -6.625
278
root 0.831058 18.3503 -14.0289 3.36022 -5.85545 4.78723
lowerback 8.00535 -0.593671 1.46996
upperback -1.977 -0.340528 4.77772
thorax -6.56141 -0.123252 4.24839
lowerneck -22.4314 -2.55849 -8.39696
upperneck 11.1951 -1.63785 4.381
head 7.16674 -0.740476 2.5942
rclavicle 7.15625e-015 3.02153e-014
rhumerus -35.1319 -8.28597 -80.643
rradius 58.9471
rwrist -1.30293
rhand -18.9152 11.8547
rfingers 7.12502
rthumb 7.38702 -17.9964
lclavicle 7.15625e-015 3.02153e-014
lhumerus -41.221 1.17797 88.5842
lradius 56.1559
lwrist 0.572961
lhand -22.3923 23.8463
lfingers 7.12502
lthumb 4.02996 53.7879
rfemur -11.9386 6.72465 14.3056
rtibia 34.1217
rfoot -2.99011 -9.59829
rtoes 3.91678
lfemur -7.7469 -0.225852 -23.8455
ltibia 24.1713
lfoot -2.3038 -0.0188781
ltoes -7.4429
279
root 0.824449 18.3965 -14.0188 3.50526 -5.93964 4.82005
lowerback 7.86925 -0.604866 1.32927
upperback -2.03713 -0.376357 4.7288
thorax -6.54399 -0.136172 4.27923
lowerneck -21.9353 -2.51363 -8.44055
upperneck 11.14 -1.61433 4.41707
head 7.06829 -0.73194 2.61598
rclavicle -8.94531e-015 -1.90833e-014
rhumerus -35.1112 -7.96137 -80.5134
rradius 58.6659
rwrist -1.48786
rhand -19.0964 11.7564
rfingers 7.12502
rthumb 7.21208 -18.1007
lclavicle -8.94531e-015 -1.90833e-014
lhumerus -41.2053 1.33755 88.1843
lradius 56.6674
lwrist 0.920073
lhand -22.1459 22.9705
lfingers 7.12502
lthumb 4.26787 52.9075
rfemur -11.8246 6.63852 14.2648
rtibia 33.4724
rfoot -2.43068 -9.36651
rtoes 5.42973
lfemur -7.59287 -0.432572 -23.8299
ltibia 23.5025
lfoot -1.54068 -0.14025
ltoes -7.40461
280
root 0.816702 18.4382 -14.01 3.75601 -6.05685 4.63161
lowerback 7.79577 -0.568889 1.39255
upperback -2.20278 -0.31706 4.72761
thorax -6.68216 -0.107436 4.23723
lowerneck -21.5223 -2.4844 -8.60749
upperneck 11.2372 -1.59829 4.61859
head 7.03622 -0.718189 2.71294
rclavicle -1.2424e-014 -1.43125e-014
rhumerus -35.1169 -7.61311 -80.3346
rradius 58.2309
rwrist -1.62836
rhand -19.5279 11.585
rfingers 7.12502
rthumb 6.79555 -18.2859
lclavicle -1.2424e-014 -1.43125e-014
lhumerus -41.2769 1.48157 87.7448
lradius 57.2939
lwrist 0.583727
lhand -20.069 21.4242
lfingers 7.12502
lthumb 6.27319 51.3113
rfemur -11.839 6.64057 14.4937
rtibia 32.8688
rfoot -1.86024 -9.35413
rtoes 6.15441
lfemur -7.56043 -0.631282 -23.5704
ltibia 22.8385
lfoot -0.785935 -0.126656
ltoes -6.46526
281
root 0.810132 18.4703 -14.0028 3.93504 -6.10461 4.54414
lowerback 7.74861 -0.56896 1.36124
upperback -2.32578 -0.317827 4.70802
thorax -6.78576 -0.105344 4.23674
lowerneck -21.078 -2.4525 -8.85194
upperneck 11.3371 -1.57507 4.90702
head 7.00049 -0.697108 2.85215
rclavicle 9.93923e-015 -4.77083e-015
rhumerus -35.0234 -7.3403 -80.1794
rradius 57.7075
rwrist -1.60089
rhand -19.9748 11.4325
rfingers 7.12502
rthumb 6.36414 -18.4519
lclavicle 9.93923e-015 -4.77083e-015
lhumerus -41.1413 1.59273 87.3984
lradius 57.5971
lwrist 0.806261
lhand -22.3175 24.6944
lfingers 7.12502
lthumb 4.1022 54.6346
rfemur -11.8019 6.58067 14.615
rtibia 32.2945
rfoot -1.18512 -9.38104
rtoes 6.89374
lfemur -7.43131 -0.945563 -23.4432
ltibia 22.2034
lfoot -0.133463 0.0354923
ltoes -5.57353
282
root 0.806245 18.4971 -13.9918 4.04608 -6.11676 4.66588
lowerback 7.5571 -0.620167 1.19115
upperback -2.33998 -0.417432 4.61023
thorax -6.68311 -0.150364 4.23773
lowerneck -20.5724 -2.3867 -9.03515
upperneck 11.2681 -1.5198 5.14533
head 6.8955 -0.661452 2.96679
rclavicle 8.74653e-015 3.02153e-014
rhumerus -34.7518 -7.0473 -80.1194
rradius 57.1227
rwrist -1.45626
rhand -20.5032 11.0045
rfingers 7.12502
rthumb 5.85405 -18.8946
lclavicle 8.74653e-015 3.02153e-014
lhumerus -40.8758 1.72653 87.0848
lradius 57.6956
lwrist 1.76679
lhand -26.2623 21.689
lfingers 7.12502
lthumb 0.292367 51.6685
rfemur -11.6617 6.46875 14.4848
rtibia 31.7183
rfoot -0.841933 -9.27267
rtoes 8.01829
lfemur -7.20663 -1.23213 -23.5679
ltibia 21.6202
lfoot 0.304293 0.0929872
ltoes -5.78433
283
root 0.80185 18.5217 -13.9739 4.22339 -6.01159 4.6994
lowerback 7.21399 -0.670851 1.11666
upperback -2.28217 -0.513203 4.54216
thorax -6.41778 -0.198986 4.20907
lowerneck -20.5319 -2.38261 -9.14282
upperneck 11.4022 -1.51008 5.26456
head 6.93402 -0.652995 3.02632
rclavicle -2.23633e-014 3.18055e-015
rhumerus -34.433 -6.86823 -79.9665
rradius 56.5486
rwrist -1.47682
rhand -20.4011 11.1077
rfingers 7.12502
rthumb 5.95255 -18.7887
lclavicle -2.23633e-014 3.18055e-015
lhumerus -40.7057 1.90443 86.7668
lradius 58.1378
lwrist 2.10388
lhand -27.6015 19.9159
lfingers 7.12502
lthumb -1.001 49.8933
rfemur -11.474 6.22244 14.4748
rtibia 31.1246
rfoot -0.77125 -9.15355
rtoes 8.06992
lfemur -7.02494 -1.49847 -23.5869
ltibia 21.0352
lfoot 0.649348 -0.00849645
ltoes -6.43501
284
root 0.79525 18.5433 -13.9555 4.41571 -5.83755 4.60846
lowerback 6.98673 -0.6851 1.19502
upperback -2.24306 -0.540277 4.45888
thorax -6.24515 -0.219107 4.07232
lowerneck -20.8049 -2.4737 -9.22885
upperneck 11.7141 -1.61613 5.42843
head 7.09116 -0.69349 3.0858
rclavicle 1.74931e-014 2.54444e-014
rhumerus -34.1018 -6.9092 -79.7691
rradius 55.8665
rwrist -1.5664
rhand -19.764 11.6645
rfingers 7.12502
rthumb 6.56768 -18.2137
lclavicle 1.74931e-014 2.54444e-014
lhumerus -40.4422 1.92212 86.4499
lradius 58.6777
lwrist 2.17901
lhand -27.2442 19.5983
lfingers 7.12502
lthumb -0.655904 49.5771
rfemur -11.2496 6.07149 14.6315
rtibia 30.5338
rfoot -0.525806 -9.20402
rtoes 8.04915
lfemur -6.89739 -1.89535 -23.4412
ltibia 20.4972
lfoot 1.00361 -0.0819105
ltoes -6.91918
285
root 0.789867 18.5617 -13.9393 4.50125 -5.88015 4.58716
lowerback 6.87354 -0.663008 1.19647
upperback -2.18808 -0.524066 4.34461
thorax -6.12343 -0.214962 3.94386
lowerneck -20.8287 -2.52626 -9.37319
upperneck 11.8393 -1.68619 5.66438
head 7.14519 -0.712879 3.18115
rclavicle -3.57812e-015 -2.70347e-014
rhumerus -33.754 -6.8949 -79.6154
rradius 55.1253
rwrist -1.67813
rhand -19.4707 11.8256
rfingers 7.12502
rthumb 6.85083 -18.0436
lclavicle -3.57812e-015 -2.70347e-014
lhumerus -39.9892 2.03128 86.083
lradius 58.8655
lwrist 2.54629
lhand -26.8992 19.353
lfingers 7.12502
lthumb -0.322773 49.3325
rfemur -10.9897 6.0984 14.678
rtibia 29.965
rfoot -0.311952 -9.21132
rtoes 7.93965
lfemur -6.6983 -2.22052 -23.415
ltibia 20.0702
lfoot 1.29315 0.108481
ltoes -6.66536
286
root 0.783222 18.5725 -13.9302 4.65178 -5.94269 4.55273
lowerback 6.7657 -0.68778 1.1009
upperback -2.20988 -0.572831 4.28288
thorax -6.08108 -0.236933 3.9363
lowerneck -20.5706 -2.47103 -9.33778
upperneck 11.8034 -1.64708 5.6706
head 7.08783 -0.694757 3.18153
rclavicle -5.36719e-015 -1.90833e-014
rhumerus -33.4243 -6.59282 -79.556
rradius 54.398
rwrist -1.81417
rhand -19.759 11.4414
rfingers 7.12502
rthumb 6.57243 -18.4366
lclavicle -5.36719e-015 -1.90833e-014
lhumerus -39.7463 2.37008 85.635
lradius 59.083
lwrist 2.68669
lhand -26.4028 19.797
lfingers 7.12502
lthumb 0.156722 49.7767
rfemur -10.8582 6.23676 14.7345
rtibia 29.4303
rfoot -0.188159 -9.30938
rtoes 8.03406
lfemur -6.63492 -2.31714 -23.3632
ltibia 19.7229
lfoot 1.49397 0.124421
ltoes -6.94426
287
root 0.77454 18.5802 -13.9273 4.91468 -5.93505 4.46429
lowerback 6.64312 -0.727778 0.997283
upperback -2.28935 -0.637391 4.27768
thorax -6.08987 -0.264433 3.99617
lowerneck -20.3343 -2.43956 -9.15918
upperneck 11.8187 -1.63755 5.42925
head 7.04968 -0.707708 3.0729
rclavicle -9.93923e-015 2.06736e-014
rhumerus -33.0293 -6.19268 -79.4895
rradius 53.6097
rwrist -1.90801
rhand -19.995 11.2521
rfingers 7.12502
rthumb 6.34468 -18.6328
lclavicle -9.93923e-015 2.06736e-014
lhumerus -39.5794 2.72138 85.2393
lradius 59.4107
lwrist 2.72191
lhand -26.1532 18.9379
lfingers 7.12502
lthumb 0.397812 48.9172
rfemur -10.8904 6.50823 14.8633
rtibia 28.9691
rfoot -0.108677 -9.58934
rtoes 9.05551
lfemur -6.76285 -2.5215 -23.2234
ltibia 19.4425
lfoot 1.63722 0.196567
ltoes -7.4741
